%TF.GenerationSoftware,Novarm,DipTrace,3.3.1.3*%
%TF.CreationDate,2020-04-19T13:08:01+02:00*%
%FSLAX35Y35*%
%MOMM*%
%TF.FileFunction,Copper,L2,Bot*%
%TF.Part,Single*%
%AMOUTLINE3*
4,1,4,
-0.45,-0.35003,
-0.45,0.35003,
0.45,0.35003,
0.45,-0.35003,
-0.45,-0.35003,
0*%
%TA.AperFunction,Conductor*%
%ADD10C,0.25*%
%ADD14C,0.8*%
%ADD15C,0.6*%
%ADD17R,0.9X0.7*%
%ADD18R,1.1X1.0*%
%TA.AperFunction,ComponentPad*%
%ADD22R,1.5X1.5*%
%ADD23C,1.5*%
%ADD24R,1.45X1.2*%
%ADD27R,1.1X0.6*%
%TA.AperFunction,ViaPad*%
%ADD28C,0.9*%
%ADD30C,1.016*%
%ADD57OUTLINE3*%
G75*
G01*
%LPD*%
X1404000Y1153000D2*
D14*
Y1166000D1*
X1309000Y1261000D1*
Y1297000D1*
D15*
Y1423000D1*
X1321000Y1435000D1*
X1302000D1*
Y1520000D1*
Y1560000D1*
X1261000Y1601000D1*
X1404000Y1153000D2*
X1339000Y1218000D1*
X1357000D1*
X1306000Y1269000D1*
Y1478000D1*
X1321000Y1463000D1*
Y1435000D1*
X1261000Y1791000D2*
X1144000D1*
X1123000Y1770000D1*
X2166000Y1150000D2*
Y1178000D1*
X2212000Y1224000D1*
X2159993D1*
Y1341000D1*
X2646000Y1405000D2*
Y1457000D1*
X2551000Y1552000D1*
X2442000D1*
X2412000D1*
X2393000Y1533000D1*
X2332000D1*
X2215000Y1756000D2*
X2280000Y1821000D1*
Y1876000D1*
X1150000Y1153000D2*
Y1268000D1*
X1179000Y1297000D1*
Y1403000D1*
X1151000Y1431000D1*
Y1435000D1*
Y1471000D1*
X1120000Y1502000D1*
Y1609000D1*
X1531000Y1696000D2*
X1456000D1*
X1443000Y1683000D1*
X1194000D1*
X1120000Y1609000D1*
X2172000Y1647000D2*
X2291000D1*
X2441000Y1797000D1*
Y1876000D1*
X2450000D1*
X2172000Y1457000D2*
Y1647000D1*
X2675000Y1869000D2*
X2450000D1*
Y1876000D1*
X2442000Y1457000D2*
X2427000D1*
Y1298000D1*
X2423000Y1294000D1*
Y1277000D1*
Y1341000D1*
X2290000D1*
X2674000Y1150000D2*
Y1175000D1*
X2801000Y1302000D1*
Y1390000D1*
X2816000Y1405000D1*
X2795000D1*
Y1572000D1*
X2811000D1*
X2553000Y1277000D2*
D10*
Y1245000D1*
X2623000Y1175000D1*
X2674000D1*
X2811000Y1742000D2*
D15*
X2654000D1*
X2559000Y1647000D1*
X2442000D1*
X1410000Y1791000D2*
X1531000D1*
X1520000Y1376000D2*
X1531000D1*
Y1601000D1*
D28*
X1123000Y1770000D3*
D30*
X1302000Y1520000D3*
X2332000Y1533000D3*
X2215000Y1756000D3*
X2332000Y1533000D3*
X1120000Y1609000D3*
X2675000Y1869000D3*
X1410000Y1791000D3*
X1520000Y1376000D3*
D17*
X1179000Y1297000D3*
X1309000D3*
D18*
X1151000Y1435000D3*
X1321000D3*
X2450000Y1876000D3*
X2280000D3*
X2816000Y1405000D3*
X2646000D3*
D22*
X1150000Y1153000D3*
D23*
X1404000D3*
D22*
X2166000Y1150000D3*
D23*
X2420000D3*
X2674000D3*
D24*
X2811000Y1742000D3*
Y1572000D3*
D17*
X2423000Y1277000D3*
X2553000D3*
D57*
X2290000Y1341000D3*
X2159993D3*
D27*
X1531000Y1791000D3*
Y1696000D3*
Y1601000D3*
X1261000D3*
Y1791000D3*
X2442000Y1647000D3*
Y1552000D3*
Y1457000D3*
X2172000D3*
Y1647000D3*
M02*
