%TF.GenerationSoftware,Novarm,DipTrace,3.3.1.3*%
%TF.CreationDate,2020-04-19T13:08:03+02:00*%
%FSLAX35Y35*%
%MOMM*%
%TF.FileFunction,Legend,Bot*%
%TF.Part,Single*%
%ADD10C,0.25*%
%ADD26O,0.39103X0.39118*%
%ADD52C,0.11765*%
G75*
G01*
%LPD*%
D26*
X1573228Y1859361D3*
X1435902Y1845994D2*
D10*
Y1546000D1*
X1355916Y1845994D2*
Y1546000D1*
X1435902D2*
X1355916D1*
X1435902Y1845994D2*
X1355916D1*
D26*
X2484228Y1715361D3*
X2346902Y1701994D2*
D10*
Y1402000D1*
X2266916Y1701994D2*
Y1402000D1*
X2346902D2*
X2266916D1*
X2346902Y1701994D2*
X2266916D1*
X1040602Y1290571D2*
D52*
X1033358Y1294193D1*
X1026030Y1301521D1*
X1022408Y1308765D1*
Y1323337D1*
X1026030Y1330665D1*
X1033358Y1337909D1*
X1040602Y1341615D1*
X1051552Y1345237D1*
X1069830D1*
X1080696Y1341615D1*
X1088024Y1337909D1*
X1095268Y1330665D1*
X1098974Y1323337D1*
Y1308765D1*
X1095268Y1301521D1*
X1088024Y1294193D1*
X1080696Y1290571D1*
X1037064Y1267042D2*
X1033358Y1259714D1*
X1022492Y1248764D1*
X1098974D1*
X1420039Y1444954D2*
X1412795Y1448576D1*
X1405467Y1455904D1*
X1401845Y1463148D1*
Y1477720D1*
X1405467Y1485048D1*
X1412795Y1492292D1*
X1420039Y1495998D1*
X1430989Y1499620D1*
X1449267D1*
X1460133Y1495998D1*
X1467461Y1492291D1*
X1474705Y1485048D1*
X1478411Y1477720D1*
Y1463148D1*
X1474705Y1455904D1*
X1467461Y1448576D1*
X1460133Y1444954D1*
X1420123Y1417718D2*
X1416501D1*
X1409173Y1414097D1*
X1405551Y1410475D1*
X1401929Y1403147D1*
Y1388575D1*
X1405551Y1381331D1*
X1409173Y1377709D1*
X1416501Y1374003D1*
X1423745D1*
X1431073Y1377709D1*
X1441939Y1384953D1*
X1478411Y1421424D1*
Y1370381D1*
X2131602Y1885954D2*
X2124358Y1889576D1*
X2117030Y1896904D1*
X2113408Y1904148D1*
Y1918720D1*
X2117030Y1926048D1*
X2124358Y1933292D1*
X2131602Y1936998D1*
X2142552Y1940620D1*
X2160830D1*
X2171696Y1936998D1*
X2179024Y1933291D1*
X2186268Y1926048D1*
X2189974Y1918720D1*
Y1904148D1*
X2186268Y1896904D1*
X2179024Y1889576D1*
X2171696Y1885954D1*
X2113492Y1855097D2*
Y1815087D1*
X2142636Y1836903D1*
Y1825953D1*
X2146258Y1818709D1*
X2149880Y1815087D1*
X2160830Y1811381D1*
X2168074D1*
X2179024Y1815087D1*
X2186352Y1822331D1*
X2189974Y1833281D1*
Y1844231D1*
X2186352Y1855096D1*
X2182646Y1858718D1*
X2175402Y1862424D1*
X2742765Y1310961D2*
X2746387Y1318205D1*
X2753715Y1325533D1*
X2760959Y1329155D1*
X2775530D1*
X2782859Y1325533D1*
X2790102Y1318205D1*
X2793809Y1310961D1*
X2797430Y1300011D1*
Y1281733D1*
X2793809Y1270867D1*
X2790102Y1263539D1*
X2782859Y1256295D1*
X2775530Y1252589D1*
X2760959D1*
X2753715Y1256295D1*
X2746387Y1263539D1*
X2742765Y1270867D1*
X2682763Y1252589D2*
Y1329071D1*
X2719235Y1278111D1*
X2664570D1*
X2853762Y1913592D2*
Y1837026D1*
X2810046D1*
X2786516Y1898936D2*
X2779188Y1902642D1*
X2768238Y1913508D1*
Y1837026D1*
X2660317Y1323426D2*
Y1290660D1*
X2656611Y1279710D1*
X2652989Y1276004D1*
X2645745Y1272382D1*
X2638417D1*
X2631173Y1276004D1*
X2627467Y1279710D1*
X2623845Y1290660D1*
Y1323426D1*
X2700411D1*
X2660317Y1297904D2*
X2700411Y1272382D1*
X2638501Y1248853D2*
X2634795Y1241525D1*
X2623929Y1230575D1*
X2700411D1*
X2287805Y1243681D2*
X2255039D1*
X2244089Y1247388D1*
X2240383Y1251009D1*
X2236761Y1258253D1*
Y1265581D1*
X2240383Y1272825D1*
X2244089Y1276531D1*
X2255039Y1280153D1*
X2287805D1*
Y1203588D1*
X2262283Y1243681D2*
X2236761Y1203588D1*
X2209526Y1261875D2*
Y1265497D1*
X2205904Y1272825D1*
X2202282Y1276447D1*
X2194954Y1280069D1*
X2180382D1*
X2173138Y1276447D1*
X2169516Y1272825D1*
X2165810Y1265497D1*
Y1258253D1*
X2169516Y1250925D1*
X2176760Y1240059D1*
X2213232Y1203588D1*
X2162188D1*
X1445816Y1990512D2*
Y1935846D1*
X1442194Y1924896D1*
X1434866Y1917652D1*
X1423916Y1913946D1*
X1416672D1*
X1405722Y1917652D1*
X1398394Y1924896D1*
X1394772Y1935846D1*
Y1990512D1*
X1371242Y1975856D2*
X1363914Y1979562D1*
X1352964Y1990428D1*
Y1913946D1*
X2373199Y1846512D2*
Y1791846D1*
X2369577Y1780896D1*
X2362249Y1773652D1*
X2351299Y1769946D1*
X2344055D1*
X2333105Y1773652D1*
X2325777Y1780896D1*
X2322155Y1791846D1*
Y1846512D1*
X2294919Y1828234D2*
Y1831856D1*
X2291297Y1839184D1*
X2287675Y1842806D1*
X2280347Y1846428D1*
X2265775D1*
X2258531Y1842806D1*
X2254910Y1839184D1*
X2251203Y1831856D1*
Y1824612D1*
X2254910Y1817284D1*
X2262153Y1806418D1*
X2298625Y1769946D1*
X2247581D1*
M02*
