G04 DipTrace 3.3.1.3*
G04 Bottom.gbr*
%MOMM*%
G04 #@! TF.FileFunction,Copper,L2,Bot*
G04 #@! TF.Part,Single*
%AMOUTLINE3*
4,1,4,
-0.45,-0.35,
-0.45,0.35,
0.45,0.35,
0.45,-0.35,
-0.45,-0.35,
0*%
G04 #@! TA.AperFunction,Conductor*
%ADD14C,0.6*%
%ADD15C,0.7*%
%ADD17R,1.1X1.0*%
%ADD21R,1.6X0.8*%
G04 #@! TA.AperFunction,ComponentPad*
%ADD22R,1.5X1.5*%
%ADD23C,1.5*%
%ADD24R,1.45X1.2*%
%ADD27R,1.1X0.6*%
%ADD28R,0.9X0.7*%
G04 #@! TA.AperFunction,ViaPad*
%ADD29C,1.016*%
%ADD31C,0.9*%
%ADD58OUTLINE3*%
%FSLAX35Y35*%
G04*
G71*
G90*
G75*
G01*
G04 Bottom*
%LPD*%
X1149000Y1378000D2*
D14*
Y1485000D1*
X1120000Y1514000D1*
Y1609000D1*
X1531000Y1696000D2*
X1456000D1*
X1443000Y1683000D1*
X1179000D1*
X1105000Y1609000D1*
X1120000D1*
X1150000Y1153000D2*
D15*
Y1377000D1*
X1149000Y1378000D1*
X1319000D2*
D14*
X1302000D1*
Y1520000D1*
Y1560000D1*
X1261000Y1601000D1*
X1404000Y1153000D2*
X1306000Y1251000D1*
Y1478000D1*
X1319000Y1465000D1*
Y1378000D1*
X1261000Y1791000D2*
X1144000D1*
X1123000Y1770000D1*
X2169000Y1616000D2*
X2245000D1*
X2425000Y1796000D1*
Y1876000D1*
X2450000D1*
X2169000Y1426000D2*
Y1616000D1*
X2640000Y1895000D2*
X2616000D1*
X2450000D1*
Y1876000D1*
X2616000Y1782000D2*
Y1895000D1*
X2439000Y1426000D2*
Y1296000D1*
X2426000D1*
Y1302000D1*
X2289000D1*
X2674000Y1150000D2*
Y1123000D1*
X2819000Y1268000D1*
Y1399000D1*
X2829000Y1409000D1*
X2556000Y1296000D2*
Y1250000D1*
X2683000Y1123000D1*
X2674000D1*
X2806000Y1531000D2*
X2824000D1*
Y1414000D1*
X2829000Y1409000D1*
X2616000Y1612000D2*
X2584000D1*
X2580000Y1616000D1*
X2439000D1*
X2616000Y1612000D2*
X2688000D1*
X2806000Y1730000D1*
Y1871000D1*
X1410000Y1791000D2*
X1531000D1*
X1520000Y1376000D2*
X1531000D1*
Y1601000D1*
X2166000Y1150000D2*
Y1178000D1*
X2159000Y1185000D1*
Y1302000D1*
X2659000Y1409000D2*
X2615000D1*
X2503000Y1521000D1*
X2439000D1*
X2332000D1*
X2322000Y1531000D1*
X2308000D1*
X2215000Y1756000D2*
X2280000Y1821000D1*
Y1876000D1*
D29*
X1120000Y1609000D3*
D31*
X1123000Y1770000D3*
D29*
X1302000Y1520000D3*
X2640000Y1895000D3*
X1410000Y1791000D3*
X1520000Y1376000D3*
X2308000Y1531000D3*
X2215000Y1756000D3*
X2308000Y1531000D3*
D17*
X1149000Y1378000D3*
X1319000D3*
X2450000Y1876000D3*
X2280000D3*
X2829000Y1409000D3*
X2659000D3*
D21*
X2806000Y1531000D3*
Y1871000D3*
D22*
X1150000Y1153000D3*
D23*
X1404000D3*
D22*
X2166000Y1150000D3*
D23*
X2420000D3*
X2674000D3*
D24*
X2616000Y1782000D3*
Y1612000D3*
D58*
X2289000Y1302000D3*
X2159000D3*
D27*
X1531000Y1791000D3*
Y1696000D3*
Y1601000D3*
X1261000D3*
Y1791000D3*
X2439000Y1616000D3*
Y1521000D3*
Y1426000D3*
X2169000D3*
Y1616000D3*
D28*
X2426000Y1296000D3*
X2556000D3*
M02*
