G04 DipTrace 3.3.1.3*
G04 BottomSilk.gbr*
%MOMM*%
G04 #@! TF.FileFunction,Legend,Bot*
G04 #@! TF.Part,Single*
%ADD10C,0.25*%
%ADD20C,0.40002*%
%ADD26O,0.39103X0.39118*%
%ADD53C,0.11765*%
%FSLAX35Y35*%
G04*
G71*
G90*
G75*
G01*
G04 BotSilk*
%LPD*%
X2886007Y1610980D2*
D10*
Y1791012D1*
X2726000Y1610980D2*
Y1791012D1*
D20*
X2806003Y1435998D3*
D26*
X1573228Y1859361D3*
X1435902Y1845994D2*
D10*
Y1546000D1*
X1355916Y1845994D2*
Y1546000D1*
X1435902D2*
X1355916D1*
X1435902Y1845994D2*
X1355916D1*
D26*
X2481228Y1684361D3*
X2343902Y1670994D2*
D10*
Y1371000D1*
X2263916Y1670994D2*
Y1371000D1*
X2343902D2*
X2263916D1*
X2343902Y1670994D2*
X2263916D1*
X1418039Y1371571D2*
D53*
X1410795Y1375193D1*
X1403467Y1382521D1*
X1399845Y1389765D1*
Y1404337D1*
X1403467Y1411665D1*
X1410795Y1418909D1*
X1418039Y1422615D1*
X1428989Y1426237D1*
X1447267D1*
X1458133Y1422615D1*
X1465461Y1418909D1*
X1472705Y1411665D1*
X1476411Y1404337D1*
Y1389765D1*
X1472705Y1382521D1*
X1465461Y1375193D1*
X1458133Y1371571D1*
X1414501Y1348042D2*
X1410795Y1340714D1*
X1399929Y1329764D1*
X1476411D1*
X2131602Y1885954D2*
X2124358Y1889576D1*
X2117030Y1896904D1*
X2113408Y1904148D1*
Y1918720D1*
X2117030Y1926048D1*
X2124358Y1933292D1*
X2131602Y1936998D1*
X2142552Y1940620D1*
X2160830D1*
X2171696Y1936998D1*
X2179024Y1933291D1*
X2186268Y1926048D1*
X2189974Y1918720D1*
Y1904148D1*
X2186268Y1896904D1*
X2179024Y1889576D1*
X2171696Y1885954D1*
X2131686Y1858718D2*
X2128064D1*
X2120736Y1855097D1*
X2117114Y1851475D1*
X2113492Y1844147D1*
Y1829575D1*
X2117114Y1822331D1*
X2120736Y1818709D1*
X2128064Y1815003D1*
X2135308D1*
X2142636Y1818709D1*
X2153502Y1825953D1*
X2189974Y1862424D1*
Y1811381D1*
X2753954Y1314961D2*
X2757576Y1322205D1*
X2764904Y1329533D1*
X2772148Y1333155D1*
X2786720D1*
X2794048Y1329533D1*
X2801291Y1322205D1*
X2804998Y1314961D1*
X2808620Y1304011D1*
Y1285733D1*
X2804998Y1274867D1*
X2801291Y1267539D1*
X2794048Y1260295D1*
X2786720Y1256589D1*
X2772148D1*
X2764904Y1260295D1*
X2757576Y1267539D1*
X2753954Y1274867D1*
X2723096Y1333071D2*
X2683087D1*
X2704902Y1303927D1*
X2693952D1*
X2686709Y1300305D1*
X2683087Y1296683D1*
X2679380Y1285733D1*
Y1278489D1*
X2683087Y1267539D1*
X2690330Y1260211D1*
X2701280Y1256589D1*
X2712230D1*
X2723096Y1260211D1*
X2726718Y1263917D1*
X2730424Y1271161D1*
X2868812Y2022592D2*
Y1946026D1*
X2843290D1*
X2832340Y1949732D1*
X2825012Y1956976D1*
X2821390Y1964304D1*
X2817768Y1975170D1*
Y1993448D1*
X2821390Y2004398D1*
X2825012Y2011642D1*
X2832340Y2018970D1*
X2843290Y2022592D1*
X2868812D1*
X2786911Y2022508D2*
X2746901D1*
X2768717Y1993364D1*
X2757767D1*
X2750523Y1989742D1*
X2746901Y1986120D1*
X2743195Y1975170D1*
Y1967926D1*
X2746901Y1956976D1*
X2754145Y1949648D1*
X2765095Y1946026D1*
X2776045D1*
X2786911Y1949648D1*
X2790532Y1953354D1*
X2794239Y1960598D1*
X2431908Y1739762D2*
X2508474D1*
Y1696046D1*
X2446564Y1672517D2*
X2442858Y1665189D1*
X2431992Y1654239D1*
X2508474D1*
X2038880Y1348426D2*
Y1315660D1*
X2035174Y1304710D1*
X2031552Y1301004D1*
X2024308Y1297382D1*
X2016980D1*
X2009736Y1301004D1*
X2006030Y1304710D1*
X2002408Y1315660D1*
Y1348426D1*
X2078974D1*
X2038880Y1322904D2*
X2078974Y1297382D1*
X2017064Y1273853D2*
X2013358Y1266525D1*
X2002492Y1255575D1*
X2078974D1*
X1445816Y1990512D2*
Y1935846D1*
X1442194Y1924896D1*
X1434866Y1917652D1*
X1423916Y1913946D1*
X1416672D1*
X1405722Y1917652D1*
X1398394Y1924896D1*
X1394772Y1935846D1*
Y1990512D1*
X1371242Y1975856D2*
X1363914Y1979562D1*
X1352964Y1990428D1*
Y1913946D1*
X2370199Y1815512D2*
Y1760846D1*
X2366577Y1749896D1*
X2359249Y1742652D1*
X2348299Y1738946D1*
X2341055D1*
X2330105Y1742652D1*
X2322777Y1749896D1*
X2319155Y1760846D1*
Y1815512D1*
X2291919Y1797234D2*
Y1800856D1*
X2288297Y1808184D1*
X2284675Y1811806D1*
X2277347Y1815428D1*
X2262775D1*
X2255531Y1811806D1*
X2251910Y1808184D1*
X2248203Y1800856D1*
Y1793612D1*
X2251910Y1786284D1*
X2259153Y1775418D1*
X2295625Y1738946D1*
X2244581D1*
M02*
