G04 DipTrace 3.3.1.3*
G04 Top.gbr*
%MOMM*%
G04 #@! TF.FileFunction,Copper,L1,Top*
G04 #@! TF.Part,Single*
%AMOUTLINE0*
4,1,4,
-0.8,-0.4,
-0.8,0.4,
0.8,0.4,
0.8,-0.4,
-0.8,-0.4,
0*%
G04 #@! TA.AperFunction,Conductor*
%ADD14C,0.6*%
%ADD16C,1.0*%
%ADD19R,0.8X1.6*%
G04 #@! TA.AperFunction,ComponentPad*
%ADD22R,1.5X1.5*%
%ADD23C,1.5*%
%ADD25R,2.0X1.2*%
G04 #@! TA.AperFunction,ViaPad*
%ADD29C,1.016*%
%ADD31C,0.9*%
%ADD55OUTLINE0*%
%FSLAX35Y35*%
G04*
G71*
G90*
G75*
G01*
G04 Top*
%LPD*%
X1120000Y1609000D2*
D14*
X1164000D1*
Y1646000D1*
X1123000Y1770000D2*
X1290000D1*
X1326000Y1734000D1*
Y1544000D1*
X1302000Y1520000D1*
X2646000Y1717000D2*
X2772000D1*
X2846000Y1791000D1*
Y1860000D1*
X2840000Y1866000D1*
X2646000Y1717000D2*
X2640000D1*
Y1895000D1*
X1164000Y1396000D2*
Y1384000D1*
X1377000D1*
X1410000Y1417000D1*
Y1791000D1*
X1164000Y1896000D2*
X1189000Y1921000D1*
X1459000D1*
X1520000Y1860000D1*
Y1376000D1*
X2314000Y1896000D2*
X2470000D1*
X2500000Y1866000D1*
X2646000Y1376999D2*
D16*
Y1387000D1*
X2323000D1*
D14*
X2314000Y1396000D1*
X2308000Y1531000D2*
Y1652000D1*
X2314000Y1646000D1*
X2292000D1*
X2215000Y1723000D1*
Y1756000D1*
X2308000Y1531000D2*
X2214000D1*
X2155000Y1472000D1*
Y1139000D1*
X2166000Y1150000D1*
D29*
X1120000Y1609000D3*
D31*
X1123000Y1770000D3*
D29*
X1302000Y1520000D3*
X2640000Y1895000D3*
X1410000Y1791000D3*
X1520000Y1376000D3*
X2308000Y1531000D3*
X2215000Y1756000D3*
X2308000Y1531000D3*
D19*
X2840000Y1866000D3*
X2500000D3*
D55*
X2646000Y1716999D3*
Y1376999D3*
D22*
X1150000Y1153000D3*
D23*
X1404000D3*
D22*
X2166000Y1150000D3*
D23*
X2420000D3*
X2674000D3*
D25*
X1164000Y1896000D3*
Y1646000D3*
Y1396000D3*
X2314000Y1896000D3*
Y1646000D3*
Y1396000D3*
M02*
