G04 DipTrace 3.3.1.3*
G04 TopDimension.gbr*
%MOMM*%
G04 #@! TF.FileFunction,Drawing,Top*
G04 #@! TF.Part,Single*
%ADD13C,0.035*%
%ADD54C,0.15686*%
%FSLAX35Y35*%
G04*
G71*
G90*
G75*
G01*
G04 TopDimension*
%LPD*%
X1650000Y2020000D2*
D13*
Y2138000D1*
X2050000Y2020000D2*
Y2138000D1*
X1850000Y2088000D2*
X1750000D1*
G36*
X1650000D2*
X1750000Y2108000D1*
Y2068000D1*
X1650000Y2088000D1*
G37*
X1850000D2*
D13*
X1950000D1*
G36*
X2050000D2*
X1950000Y2068000D1*
Y2108000D1*
X2050000Y2088000D1*
G37*
X1000000Y2020000D2*
D13*
X817000D1*
X1000000Y1000000D2*
X817000D1*
X867000Y1510000D2*
Y1920000D1*
G36*
Y2020000D2*
X887000Y1920000D1*
X847000D1*
X867000Y2020000D1*
G37*
Y1510000D2*
D13*
Y1100000D1*
G36*
Y1000000D2*
X847000Y1100000D1*
X887000D1*
X867000Y1000000D1*
G37*
X1000000Y2020000D2*
D13*
Y2292000D1*
X2950000Y2020000D2*
Y2292000D1*
X1975000Y2242000D2*
X1100000D1*
G36*
X1000000D2*
X1100000Y2262000D1*
Y2222000D1*
X1000000Y2242000D1*
G37*
X1975000D2*
D13*
X2850000D1*
G36*
X2950000D2*
X2850000Y2222000D1*
Y2262000D1*
X2950000Y2242000D1*
G37*
X1870029Y2119015D2*
D54*
Y2220991D1*
X1821399Y2153045D1*
X1894287D1*
X753439Y1385655D2*
X748497Y1395426D1*
X734009Y1410026D1*
X835985D1*
X734009Y1470598D2*
X738839Y1455998D1*
X753439Y1446228D1*
X777697Y1441398D1*
X792297D1*
X816555Y1446228D1*
X831155Y1455998D1*
X835985Y1470598D1*
Y1480257D1*
X831155Y1494857D1*
X816555Y1504515D1*
X792297Y1509457D1*
X777697D1*
X753439Y1504515D1*
X738839Y1494857D1*
X734009Y1480257D1*
Y1470598D1*
X753439Y1504515D2*
X816555Y1446228D1*
X826214Y1545659D2*
X831155Y1540829D1*
X835985Y1545659D1*
X831155Y1550600D1*
X826214Y1545659D1*
X758268Y1586914D2*
X753439D1*
X743668Y1591743D1*
X738839Y1596573D1*
X734009Y1606343D1*
Y1625773D1*
X738839Y1635431D1*
X743668Y1640260D1*
X753439Y1645202D1*
X763097D1*
X772868Y1640260D1*
X787355Y1630602D1*
X835985Y1581973D1*
Y1650031D1*
X1853070Y2355561D2*
X1862840Y2360503D1*
X1877440Y2374991D1*
Y2273015D1*
X1972042Y2341074D2*
X1967101Y2326474D1*
X1957442Y2316703D1*
X1942842Y2311874D1*
X1938013D1*
X1923413Y2316703D1*
X1913755Y2326474D1*
X1908813Y2341074D1*
Y2345903D1*
X1913755Y2360503D1*
X1923413Y2370161D1*
X1938013Y2374991D1*
X1942842D1*
X1957442Y2370161D1*
X1967101Y2360503D1*
X1972042Y2341074D1*
Y2316703D1*
X1967101Y2292445D1*
X1957442Y2277845D1*
X1942842Y2273015D1*
X1933184D1*
X1918584Y2277845D1*
X1913755Y2287615D1*
X2008244Y2282786D2*
X2003415Y2277845D1*
X2008244Y2273015D1*
X2013186Y2277845D1*
X2008244Y2282786D1*
X2102846Y2374991D2*
X2054329D1*
X2049500Y2331303D1*
X2054329Y2336132D1*
X2068929Y2341074D1*
X2083417D1*
X2098017Y2336132D1*
X2107787Y2326474D1*
X2112617Y2311874D1*
Y2302215D1*
X2107787Y2287615D1*
X2098017Y2277845D1*
X2083417Y2273015D1*
X2068929D1*
X2054329Y2277845D1*
X2049500Y2282786D1*
X2044558Y2292445D1*
M02*
